# xmcd
#
# Track frame offsets: 
#        150
#        12962
#        36650
#        51175
#        63400
#        78200
#        93850
#        104612
#        119125
#        140937
#        157700
#        171425
#        184912
#        199600
#        219750
#        233375
#        247137
#        267012
#        278662
#        295900
#
# Disc length: 4146 seconds
#
# Revision: 0
# Processed by: cddbd v1.5.2PL0 Copyright (c) Steve Scherf et al.
# Submitted via: ExactAudioCopy v0.99pb5
#
DISCID=22103014
DTITLE=Frankie Laine - Greatest Hits And Finest Performances [CD3 O
DTITLE=f 3)
DYEAR=1900
DGENRE=Country
TTITLE0=Georgia On My Mind
TTITLE1=Blue Moon
TTITLE2=Try A Little Tenderness
TTITLE3=By The Time I Get To Phoenix
TTITLE4=Scarlet Ribbons (For Her Hair)
TTITLE5=Fever
TTITLE6=A Woman In Love
TTITLE7=Solitude
TTITLE8=How Do You Keep The Music Playing
TTITLE9=One For My Baby (And One More For The Road)
TTITLE10=Memories In Gold
TTITLE11=Way Down Yonder In New Orleans
TTITLE12=It Only Happens Once
TTITLE13=Too Soon Old, Too Late Smart
TTITLE14=Beyond The Blue Horizon
TTITLE15=Rockin' Chair
TTITLE16=You Gave Me A Mountain
TTITLE17=Some Day
TTITLE18=If I Never Sing Another Song
TTITLE19=We'll Be Together Again
EXTD=
EXTT0=
EXTT1=
EXTT2=
EXTT3=
EXTT4=
EXTT5=
EXTT6=
EXTT7=
EXTT8=
EXTT9=
EXTT10=
EXTT11=
EXTT12=
EXTT13=
EXTT14=
EXTT15=
EXTT16=
EXTT17=
EXTT18=
EXTT19=
PLAYORDER=
